PathFileType	4	(X/Y/Z)	56_2_5_p0_0-247_filt_butterworth.trc
DataRate	CameraRate	NumFrames	NumMarkers	Units	OrigDataRate	OrigDataStartFrame	OrigNumFrames
59.0	59.0	6	27	m	59.0	216	247
Frame#	Time	RHip			RKnee			RAnkle			RBigToe			RSmallToe			RHeel			LHip			LKnee			LAnkle			LBigToe			LSmallToe			LHeel			Neck			Head			Nose			RShoulder			RElbow			RWrist			RThumb			RIndex			RPinky			LShoulder			LElbow			LWrist			LThumb			LIndex			LPinky			
		X1	Y1	Z1	X2	Y2	Z2	X3	Y3	Z3	X4	Y4	Z4	X5	Y5	Z5	X6	Y6	Z6	X7	Y7	Z7	X8	Y8	Z8	X9	Y9	Z9	X10	Y10	Z10	X11	Y11	Z11	X12	Y12	Z12	X13	Y13	Z13	X14	Y14	Z14	X15	Y15	Z15	X16	Y16	Z16	X17	Y17	Z17	X18	Y18	Z18	X19	Y19	Z19	X20	Y20	Z20	X21	Y21	Z21	X22	Y22	Z22	X23	Y23	Z23	X24	Y24	Z24	X25	Y25	Z25	X26	Y26	Z26	X27	Y27	Z27	
216	3.6610169491525424	0.442461595624729	0.6656345993993983	0.2664658666457111	0.4381668765191994	0.8058151253599687	0.6604630429404361	0.4832416590781668	1.0858753196993913	1.0827061581049164	0.3996016394345811	0.857768688426025	1.1337779944473017	0.4734854217334659	0.9068445218120078	1.1534833876275543	0.5093014069666598	1.1691969877776287	1.1158063993304683	0.24617515389507258	0.7529378156367643	0.25380737402953246	0.29329676765241147	0.9399962264348725	0.6578390411044377	0.31824287440716237	1.0917896796251325	1.032737163685825	0.24312578275791674	0.8928160258709489	1.124621409491673	0.2273959203098943	0.9823558703456774	1.1302956340468835	0.35598114498816646	1.1737647452913142	1.0893517246760394	0.32923496538636565	0.5268607548513399	-0.2157969014842517	0.2899653278759905	0.3404078423121166	-0.4270151717049851	0.2637413628518244	0.3493128542299281	-0.2886734723359174	0.47617144439332554	0.49288340058190605	-0.11851596223261049	0.5701093451651343	0.6286313318255717	0.11114220911971778	0.5266219512604202	0.5310803808040698	0.36890682098419186	0.4292211708235183	0.5216952657482603	0.4674441093594948	0.43098087543223884	0.49293102401155214	0.5000737236780483	0.5118956993883721	0.6126495229513254	0.4942404531622191	0.17088043577431256	0.5864102762657413	-0.15580454888646497	0.12732984407059714	0.7350893396469393	0.07838869876797362	0.03693061029322211	0.7976828284741886	0.3238338069168813	0.050610058556715166	0.7787001404295222	0.43697157009207077	0.008183876551487838	0.8219026242067535	0.45063881849640225	-0.028729895471312404	0.847331642635081	0.4310202679237269
217	3.6779661016949152	0.43922414041141145	0.6625655069429051	0.26420107200046195	0.4380671242122587	0.8054353884916632	0.6594525956204984	0.4838725439396887	1.086823474031639	1.0825595467081621	0.4008436016982394	0.8589903095697686	1.1335271867080006	0.47589682462395766	0.9103198366112202	1.154162817788024	0.5092342565381702	1.1693287491862099	1.1157888313014548	0.2457965341874748	0.7498176052075829	0.2513682598125287	0.29253261268112707	0.9384883101419518	0.6576542372306848	0.3189022138978029	1.0925213917452754	1.0319328641733196	0.24574403061112723	0.8972730451828521	1.1254228057655769	0.22877734132814304	0.9825460900004426	1.1304329174421672	0.3565044325161832	1.182029004707803	1.0894618374794258	0.32905320536889576	0.5267069305612677	-0.21631384824846606	0.2916664737902265	0.3413183689941027	-0.4273100797280544	0.26526287355986	0.3461701373125974	-0.2883800939120071	0.4758017236068911	0.4922733997502078	-0.11904039406450796	0.5682362063540275	0.6264924286006344	0.11122273092998701	0.520788684589437	0.5235600684667684	0.36676447180266003	0.42556045668568754	0.5054350600329864	0.4632687760283202	0.4271697933418677	0.4815645336309681	0.4991057169335609	0.5019017588206829	0.5945236625233699	0.49263757224754295	0.17258893156029853	0.586202768292528	-0.15761712412133727	0.12641212187276377	0.7356922256187369	0.07734561092788032	0.030255676855579408	0.7777841226980706	0.3232245255727959	0.04799658412345263	0.772334727327367	0.4365969799573054	-0.005869015611613182	0.8036709438062859	0.44865630159399306	-0.03684041830418656	0.8404356904908983	0.42727574160968473
218	3.694915254237288	0.4366339117174438	0.6608433319497815	0.2624099700862411	0.4380304728229315	0.804748707801818	0.658878462213256	0.4853436359592257	1.0891099161387177	1.0821632959899485	0.40243803431826103	0.8607894086467671	1.133093720464501	0.4766653084955685	0.9117603003092734	1.1543003248265018	0.5088918369576834	1.169085511023159	1.1157071040026656	0.24573824933695368	0.7502231549965074	0.24848390169261012	0.29051742846697404	0.9344990189434725	0.6572283981691353	0.3190807987365303	1.0928114316741206	1.0306360606343645	0.2479828464975341	0.9004273004704415	1.1253218422463174	0.22942730378372	0.9841957070851698	1.1304543564618894	0.35690210812670337	1.1878661740405225	1.089600457699025	0.32872190172570753	0.5260207535045525	-0.2174003706897783	0.2946710184050175	0.34361449717642595	-0.4280835672739025	0.2690119792281341	0.3459725872206195	-0.2885828206050024	0.47560904966534784	0.49194080924284717	-0.11925198670730504	0.5660316975477814	0.6235201465863509	0.11170199603891426	0.5152018553223295	0.5177526768026639	0.3639099395222968	0.42273220345320306	0.4887608507876264	0.4607198579382416	0.4268726425217947	0.4727843470261693	0.4984087466688536	0.4874187468746658	0.5671079940524275	0.49201807108717494	0.17492048774503668	0.5869167919173074	-0.158675875016465	0.12593628779900992	0.7335817244352087	0.0766244858929432	0.02438673623973689	0.7502092075639321	0.3225942289287182	0.04636912243284605	0.7644070789358776	0.4358619457972626	-0.013574520175744781	0.7831807309387744	0.44702890081145596	-0.03868049500546791	0.8287102299396178	0.4239907741871217
219	3.711864406779661	0.4350591908136649	0.6616771330355612	0.2608027111620012	0.4379900837759795	0.8039467765595467	0.6586575032065167	0.4874802013990717	1.0925220090651506	1.0817157282928	0.40448072554224523	0.8635367794484268	1.1331519641643037	0.47676315488333676	0.9120598682747116	1.1542541785007578	0.5085764754638992	1.1686990203559326	1.1156173298001586	0.2458764778124151	0.7540990222868538	0.2459970140053513	0.2878508078201754	0.9292806786061889	0.6566819356570973	0.3191107294589748	1.0928309522692963	1.0295330419332847	0.24931411900154496	0.901727143599305	1.125086694827798	0.22974607579262057	0.9883708524455367	1.1304080028401502	0.35693213215138675	1.187910847148989	1.0892152233614714	0.32850707487805747	0.5253233209861401	-0.21866890820531373	0.29815197653379494	0.34685926211077905	-0.4290466934238821	0.27450479456408183	0.34842203839157937	-0.28928767334051136	0.4755798086283046	0.4918875734235148	-0.11932240728072865	0.5642627834401248	0.6198534767228111	0.11295642378001365	0.5109832467248747	0.5134904230409808	0.36174712685659666	0.4197738058854411	0.47227545601838733	0.46007062776078045	0.42764349659466927	0.4645948531909049	0.4978808200596576	0.47107154012366464	0.5337866942330063	0.4921463441521844	0.17669982504576542	0.588214092332753	-0.15918233674088056	0.12519369571527	0.7280518608701302	0.07735276105975489	0.02108119208003578	0.7235776325755626	0.32273805551859464	0.045831242862611775	0.7591556016612264	0.43621220355000034	-0.012629954483687478	0.7594390547038952	0.44672582689456514	-0.0382865371370407	0.8141802219692225	0.42273012917553066
220	3.7288135593220337	0.43376195867916134	0.6654670447585093	0.2593021099949804	0.437839366955535	0.8033746141092347	0.6587522755360818	0.4892644462768682	1.095573598247489	1.0814526147409893	0.4059872273751011	0.8660829381918436	1.1341671949949934	0.4768213791607262	0.9121260296872503	1.1542211775499098	0.5083285898830745	1.1682090592311656	1.1154911981320177	0.24607272565965585	0.7596603706051296	0.24477559245193484	0.2861320594729126	0.9255705609204026	0.6562600656697448	0.31913112853743736	1.0928221941593765	1.0290893400948746	0.2499096464512527	0.9024257687646415	1.1250254749053612	0.230066118398293	0.9939405870262507	1.1302092910489907	0.3565862305370603	1.1822155739729248	1.0880636400673909	0.3291556996018625	0.5260680630898076	-0.21947230395490902	0.3011454721015824	0.35024557923091176	-0.4297528282921567	0.2798489653564966	0.3518614453357144	-0.290187017871738	0.47568736439297415	0.4921201948309674	-0.1192633277401054	0.5616462138062026	0.6135128549460885	0.11524735916887555	0.5080529062510615	0.5101721975134238	0.361389982812066	0.41713942438045915	0.45940105785983765	0.46118665466722186	0.42813424532648925	0.457055151256056	0.4977684677014105	0.4573984202313423	0.5047453558144531	0.4928326674220424	0.17742510002088804	0.5885618594578276	-0.1593724565342561	0.12369014149078088	0.7199455320130081	0.07975157735846419	0.020838651597482823	0.7036046639269488	0.324091017177807	0.04650639184224202	0.758204229592851	0.4388296588437044	-0.005497838011997169	0.7352834480149161	0.44805946899294047	-0.03771480955641146	0.7991554172315273	0.4243920284120392
221	3.745762711864407	0.43240409328463536	0.6706586298257272	0.25907664771624156	0.43755494714268844	0.8031382452731272	0.6591359790412684	0.49015244096222055	1.0973792695983742	1.0814141983590566	0.4064398725436912	0.8676320526824468	1.1357963374620272	0.47692640399002373	0.9122338677381427	1.1542308327322979	0.5081419232786553	1.1677507855238536	1.1153169912743943	0.24622636334184403	0.7639864189763219	0.24482286333149988	0.2864997879107601	0.924860670067718	0.6561747924718357	0.319153385957815	1.092882700842208	1.0290391113514592	0.2500614072853856	0.9043010986947548	1.124992195081072	0.23035847810125723	0.9982443963274914	1.1295912125207557	0.3560883870672716	1.1741655776260713	1.0865163533637028	0.33119882630165914	0.5292244553519174	-0.21949360659408662	0.3037113732255356	0.3536583070649719	-0.4302336509486087	0.28315435532242644	0.3543895859580972	-0.2908500313260624	0.4759450173478529	0.4926954637598458	-0.11881786352950129	0.5552281352294762	0.6020798923764643	0.11851731927483476	0.5051057398873056	0.5064678103509683	0.36316777032882563	0.4158908934848623	0.4532188212857056	0.4642864232345263	0.42784612514757653	0.4511509626363057	0.49842875871542186	0.4488368650961948	0.4873698479649525	0.4942375034073972	0.17751417346283246	0.5868509968505866	-0.1593365276466202	0.12167693325531566	0.711627445497212	0.08288797609390047	0.023108164399533195	0.6921515173793502	0.3264784349041813	0.04950194063655873	0.7565628835694532	0.44330900964658443	0.0033912362906492284	0.7176668233970999	0.45080823829129457	-0.03595903556421515	0.7825191863470207	0.4285068847460763
